<?xml version="1.0" encoding="UTF-8"?>
<svg width="32" height="32" viewBox="0 0 32 32" fill="none" xmlns="http://www.w3.org/2000/svg">
  <rect width="32" height="32" rx="4" fill="#FCC624"/>
  <path d="M16 4C12.5 4 10 7 10 11C10 13 10.5 14.5 11.5 15.5C11 16.5 11 17.5 11.5 18.5C12 19.5 13 20 14 20.5C14.5 21.5 15.5 22 16.5 22.5C17.5 23 18.5 23 19.5 22.5C20.5 22 21.5 21.5 22 20.5C23 20 24 19.5 24.5 18.5C25 17.5 25 16.5 24.5 15.5C25.5 14.5 26 13 26 11C26 7 23.5 4 20 4C18.5 4 17 4.5 16 5.5C15 4.5 13.5 4 12 4H16Z" fill="black"/>
  <circle cx="13" cy="10" r="1" fill="white"/>
  <circle cx="19" cy="10" r="1" fill="white"/>
  <path d="M14 13C14.5 13.5 15.5 13.5 16 13C16.5 13.5 17.5 13.5 18 13" stroke="white" stroke-width="0.5" fill="none"/>
</svg>
