<svg xmlns="http://www.w3.org/2000/svg" xmlns:xlink="http://www.w3.org/1999/xlink" width="500" zoomAndPan="magnify" viewBox="0 0 375 374.999991" height="500" preserveAspectRatio="xMidYMid meet" version="1.0"><defs><g/></defs><rect x="-37.5" width="450" fill="#ffffff" y="-37.499999" height="449.999989" fill-opacity="1"/><rect x="-37.5" width="450" fill="#000000" y="-37.499999" height="449.999989" fill-opacity="1"/><g fill="#ffffff" fill-opacity="1"><g transform="translate(122.006415, 198.743526)"><g/></g></g><g fill="#ffffff" fill-opacity="1"><g transform="translate(134.702427, 198.743526)"><g><path d="M 38 0 L 36 -25.03125 L 35.734375 -25.03125 L 27.09375 -0.25 L 21.359375 -0.25 L 12.703125 -25.03125 L 12.4375 -25.03125 L 10.453125 0 L 0.8125 0 L 4.609375 -42.25 L 14.84375 -42.25 L 24.21875 -17.875 L 33.59375 -42.25 L 43.828125 -42.25 L 47.625 0 Z M 38 0 "/></g></g></g><g fill="#ffffff" fill-opacity="1"><g transform="translate(178.322787, 198.743526)"><g><path d="M 4.859375 -3.25 C 2.398438 -5.925781 1.171875 -9.207031 1.171875 -13.09375 C 1.171875 -16.988281 2.398438 -20.285156 4.859375 -22.984375 C 7.316406 -25.679688 10.441406 -27.03125 14.234375 -27.03125 C 17.710938 -27.03125 20.582031 -25.941406 22.84375 -23.765625 L 22.84375 -26.265625 L 31.90625 -26.265625 L 31.90625 0 L 22.9375 0 L 22.9375 -2.96875 L 22.84375 -2.96875 C 20.582031 -0.476562 17.710938 0.765625 14.234375 0.765625 C 10.441406 0.765625 7.316406 -0.570312 4.859375 -3.25 Z M 12.5625 -17.5625 C 11.382812 -16.40625 10.796875 -14.921875 10.796875 -13.109375 C 10.796875 -11.296875 11.359375 -9.816406 12.484375 -8.671875 C 13.617188 -7.535156 15.109375 -6.96875 16.953125 -6.96875 C 18.722656 -6.96875 20.179688 -7.546875 21.328125 -8.703125 C 22.472656 -9.867188 23.046875 -11.335938 23.046875 -13.109375 C 23.046875 -14.921875 22.457031 -16.40625 21.28125 -17.5625 C 20.101562 -18.71875 18.660156 -19.296875 16.953125 -19.296875 C 15.210938 -19.296875 13.75 -18.71875 12.5625 -17.5625 Z M 12.5625 -17.5625 "/></g></g></g><g fill="#ffffff" fill-opacity="1"><g transform="translate(208.477744, 198.743526)"><g><path d="M 3.9375 -40.90625 C 5 -41.96875 6.265625 -42.5 7.734375 -42.5 C 9.203125 -42.5 10.460938 -41.96875 11.515625 -40.90625 C 12.578125 -39.851562 13.109375 -38.59375 13.109375 -37.125 C 13.109375 -35.65625 12.578125 -34.390625 11.515625 -33.328125 C 10.460938 -32.273438 9.203125 -31.75 7.734375 -31.75 C 6.265625 -31.75 5 -32.273438 3.9375 -33.328125 C 2.882812 -34.390625 2.359375 -35.65625 2.359375 -37.125 C 2.359375 -38.59375 2.882812 -39.851562 3.9375 -40.90625 Z M 3.078125 -26.265625 L 3.078125 0 L 12.140625 0 L 12.140625 -26.265625 Z M 3.078125 -26.265625 "/></g></g></g><g fill="#ffffff" fill-opacity="1"><g transform="translate(219.12579, 198.743526)"><g><path d="M 3.078125 0 L 3.078125 -26.265625 L 12.140625 -26.265625 L 12.140625 -23.5 L 12.234375 -23.5 C 14.585938 -25.851562 17.097656 -27.03125 19.765625 -27.03125 C 21.054688 -27.03125 22.34375 -26.859375 23.625 -26.515625 C 24.90625 -26.179688 26.132812 -25.65625 27.3125 -24.9375 C 28.488281 -24.21875 29.441406 -23.203125 30.171875 -21.890625 C 30.910156 -20.578125 31.28125 -19.050781 31.28125 -17.3125 L 31.28125 0 L 22.21875 0 L 22.21875 -14.84375 C 22.21875 -16.207031 21.78125 -17.398438 20.90625 -18.421875 C 20.039062 -19.453125 18.910156 -19.96875 17.515625 -19.96875 C 16.148438 -19.96875 14.910156 -19.4375 13.796875 -18.375 C 12.691406 -17.320312 12.140625 -16.144531 12.140625 -14.84375 L 12.140625 0 Z M 3.078125 0 "/></g></g></g><g fill="#d9d9d9" fill-opacity="1"><g transform="translate(159.506728, 212.619406)"><g><path d="M 4.984375 -3.9375 C 5.367188 -3.8125 5.679688 -3.597656 5.921875 -3.296875 C 6.171875 -2.992188 6.296875 -2.601562 6.296875 -2.125 C 6.296875 -1.363281 6.070312 -0.816406 5.625 -0.484375 C 5.175781 -0.160156 4.632812 0 4 0 L 1.34375 0 C 1.207031 0 1.09375 -0.046875 1 -0.140625 C 0.90625 -0.234375 0.859375 -0.351562 0.859375 -0.5 L 0.859375 -6.71875 C 0.859375 -6.863281 0.90625 -6.984375 1 -7.078125 C 1.09375 -7.171875 1.207031 -7.21875 1.34375 -7.21875 L 4 -7.21875 C 4.625 -7.21875 5.097656 -7.0625 5.421875 -6.75 C 5.753906 -6.445312 5.921875 -6.003906 5.921875 -5.421875 C 5.921875 -5.085938 5.835938 -4.789062 5.671875 -4.53125 C 5.515625 -4.269531 5.285156 -4.070312 4.984375 -3.9375 Z M 4.859375 -5.265625 C 4.859375 -5.585938 4.769531 -5.832031 4.59375 -6 C 4.414062 -6.164062 4.171875 -6.25 3.859375 -6.25 L 1.90625 -6.25 L 1.90625 -4.234375 L 3.875 -4.234375 C 4.15625 -4.242188 4.390625 -4.335938 4.578125 -4.515625 C 4.765625 -4.691406 4.859375 -4.941406 4.859375 -5.265625 Z M 3.984375 -0.953125 C 4.367188 -0.953125 4.671875 -1.046875 4.890625 -1.234375 C 5.117188 -1.429688 5.234375 -1.726562 5.234375 -2.125 C 5.234375 -2.882812 4.800781 -3.265625 3.9375 -3.265625 L 1.90625 -3.265625 L 1.90625 -0.953125 Z M 3.984375 -0.953125 "/></g></g></g><g fill="#d9d9d9" fill-opacity="1"><g transform="translate(172.953346, 212.619406)"><g><path d="M 5.84375 -2.703125 C 5.84375 -2.160156 5.722656 -1.675781 5.484375 -1.25 C 5.242188 -0.832031 4.914062 -0.5 4.5 -0.25 C 4.082031 -0.0078125 3.625 0.109375 3.125 0.109375 C 2.625 0.109375 2.164062 -0.0078125 1.75 -0.25 C 1.332031 -0.5 1.003906 -0.832031 0.765625 -1.25 C 0.523438 -1.675781 0.40625 -2.160156 0.40625 -2.703125 C 0.40625 -3.234375 0.523438 -3.71875 0.765625 -4.15625 C 1.003906 -4.59375 1.332031 -4.929688 1.75 -5.171875 C 2.164062 -5.410156 2.625 -5.53125 3.125 -5.53125 C 3.625 -5.53125 4.082031 -5.410156 4.5 -5.171875 C 4.914062 -4.929688 5.242188 -4.59375 5.484375 -4.15625 C 5.722656 -3.71875 5.84375 -3.234375 5.84375 -2.703125 Z M 4.875 -2.703125 C 4.875 -3.078125 4.796875 -3.410156 4.640625 -3.703125 C 4.484375 -3.992188 4.269531 -4.21875 4 -4.375 C 3.738281 -4.539062 3.445312 -4.625 3.125 -4.625 C 2.800781 -4.625 2.503906 -4.539062 2.234375 -4.375 C 1.972656 -4.21875 1.765625 -3.992188 1.609375 -3.703125 C 1.453125 -3.410156 1.375 -3.078125 1.375 -2.703125 C 1.375 -2.335938 1.453125 -2.007812 1.609375 -1.71875 C 1.765625 -1.4375 1.972656 -1.210938 2.234375 -1.046875 C 2.503906 -0.878906 2.800781 -0.796875 3.125 -0.796875 C 3.445312 -0.796875 3.738281 -0.878906 4 -1.046875 C 4.269531 -1.210938 4.484375 -1.4375 4.640625 -1.71875 C 4.796875 -2.007812 4.875 -2.335938 4.875 -2.703125 Z M 4.875 -2.703125 "/></g></g></g><g fill="#d9d9d9" fill-opacity="1"><g transform="translate(185.915834, 212.619406)"><g><path d="M 5.84375 -2.703125 C 5.84375 -2.160156 5.722656 -1.675781 5.484375 -1.25 C 5.242188 -0.832031 4.914062 -0.5 4.5 -0.25 C 4.082031 -0.0078125 3.625 0.109375 3.125 0.109375 C 2.625 0.109375 2.164062 -0.0078125 1.75 -0.25 C 1.332031 -0.5 1.003906 -0.832031 0.765625 -1.25 C 0.523438 -1.675781 0.40625 -2.160156 0.40625 -2.703125 C 0.40625 -3.234375 0.523438 -3.71875 0.765625 -4.15625 C 1.003906 -4.59375 1.332031 -4.929688 1.75 -5.171875 C 2.164062 -5.410156 2.625 -5.53125 3.125 -5.53125 C 3.625 -5.53125 4.082031 -5.410156 4.5 -5.171875 C 4.914062 -4.929688 5.242188 -4.59375 5.484375 -4.15625 C 5.722656 -3.71875 5.84375 -3.234375 5.84375 -2.703125 Z M 4.875 -2.703125 C 4.875 -3.078125 4.796875 -3.410156 4.640625 -3.703125 C 4.484375 -3.992188 4.269531 -4.21875 4 -4.375 C 3.738281 -4.539062 3.445312 -4.625 3.125 -4.625 C 2.800781 -4.625 2.503906 -4.539062 2.234375 -4.375 C 1.972656 -4.21875 1.765625 -3.992188 1.609375 -3.703125 C 1.453125 -3.410156 1.375 -3.078125 1.375 -2.703125 C 1.375 -2.335938 1.453125 -2.007812 1.609375 -1.71875 C 1.765625 -1.4375 1.972656 -1.210938 2.234375 -1.046875 C 2.503906 -0.878906 2.800781 -0.796875 3.125 -0.796875 C 3.445312 -0.796875 3.738281 -0.878906 4 -1.046875 C 4.269531 -1.210938 4.484375 -1.4375 4.640625 -1.71875 C 4.796875 -2.007812 4.875 -2.335938 4.875 -2.703125 Z M 4.875 -2.703125 "/></g></g></g><g fill="#d9d9d9" fill-opacity="1"><g transform="translate(198.878322, 212.619406)"><g><path d="M 2.203125 -4.4375 L 2.203125 -1.375 C 2.203125 -1.03125 2.351562 -0.859375 2.65625 -0.859375 C 2.707031 -0.859375 2.773438 -0.867188 2.859375 -0.890625 C 2.941406 -0.910156 3.003906 -0.921875 3.046875 -0.921875 C 3.140625 -0.921875 3.21875 -0.882812 3.28125 -0.8125 C 3.34375 -0.738281 3.375 -0.644531 3.375 -0.53125 C 3.375 -0.382812 3.289062 -0.257812 3.125 -0.15625 C 2.957031 -0.0507812 2.769531 0 2.5625 0 C 2.34375 0 2.132812 -0.0195312 1.9375 -0.0625 C 1.75 -0.113281 1.582031 -0.238281 1.4375 -0.4375 C 1.289062 -0.632812 1.21875 -0.929688 1.21875 -1.328125 L 1.21875 -4.4375 L 0.625 -4.4375 C 0.488281 -4.4375 0.378906 -4.476562 0.296875 -4.5625 C 0.210938 -4.65625 0.171875 -4.769531 0.171875 -4.90625 C 0.171875 -5.03125 0.210938 -5.132812 0.296875 -5.21875 C 0.378906 -5.300781 0.488281 -5.34375 0.625 -5.34375 L 1.21875 -5.34375 L 1.21875 -6.203125 C 1.21875 -6.347656 1.265625 -6.46875 1.359375 -6.5625 C 1.453125 -6.65625 1.570312 -6.703125 1.71875 -6.703125 C 1.851562 -6.703125 1.96875 -6.65625 2.0625 -6.5625 C 2.15625 -6.46875 2.203125 -6.347656 2.203125 -6.203125 L 2.203125 -5.34375 L 3.046875 -5.34375 C 3.179688 -5.34375 3.289062 -5.296875 3.375 -5.203125 C 3.457031 -5.117188 3.5 -5.015625 3.5 -4.890625 C 3.5 -4.753906 3.457031 -4.644531 3.375 -4.5625 C 3.289062 -4.476562 3.179688 -4.4375 3.046875 -4.4375 Z M 2.203125 -4.4375 "/></g></g></g><g fill="#d9d9d9" fill-opacity="1"><g transform="translate(209.51284, 212.619406)"><g><path d="M 3.421875 -5.5 C 4.628906 -5.5 5.234375 -4.75 5.234375 -3.25 L 5.234375 -0.5 C 5.234375 -0.351562 5.1875 -0.234375 5.09375 -0.140625 C 5 -0.046875 4.882812 0 4.75 0 C 4.601562 0 4.484375 -0.046875 4.390625 -0.140625 C 4.304688 -0.234375 4.265625 -0.351562 4.265625 -0.5 L 4.265625 -3.25 C 4.265625 -4.144531 3.882812 -4.59375 3.125 -4.59375 C 2.71875 -4.59375 2.378906 -4.460938 2.109375 -4.203125 C 1.847656 -3.941406 1.71875 -3.625 1.71875 -3.25 L 1.71875 -0.5 C 1.71875 -0.351562 1.671875 -0.234375 1.578125 -0.140625 C 1.484375 -0.046875 1.363281 0 1.21875 0 C 1.070312 0 0.953125 -0.046875 0.859375 -0.140625 C 0.773438 -0.234375 0.734375 -0.351562 0.734375 -0.5 L 0.734375 -7.140625 C 0.734375 -7.273438 0.78125 -7.390625 0.875 -7.484375 C 0.96875 -7.578125 1.082031 -7.625 1.21875 -7.625 C 1.363281 -7.625 1.484375 -7.578125 1.578125 -7.484375 C 1.671875 -7.390625 1.71875 -7.273438 1.71875 -7.140625 L 1.71875 -4.53125 C 1.882812 -4.789062 2.117188 -5.015625 2.421875 -5.203125 C 2.734375 -5.398438 3.066406 -5.5 3.421875 -5.5 Z M 3.421875 -5.5 "/></g></g></g></svg>