<svg width="25" height="24" viewBox="0 0 25 24" fill="none" xmlns="http://www.w3.org/2000/svg">
<g id="apple">
<path id="Vector" d="M19.6814 9.14118C18.482 9.88235 17.7412 11.1529 17.7412 12.5647C17.7412 14.1529 18.6936 15.6 20.14 16.2C19.8578 17.1176 19.4345 17.9647 18.9053 18.7412C18.1292 19.8353 17.3178 20.9647 16.1184 20.9647C14.919 20.9647 14.5662 20.2588 13.1551 20.2588C11.7793 20.2588 11.2854 21 10.1566 21C9.02771 21 8.25161 19.9765 7.36969 18.7059C6.20554 16.9412 5.53528 14.8941 5.5 12.7412C5.5 9.24706 7.75774 7.37647 10.0155 7.37647C11.2149 7.37647 12.2027 8.15294 12.9435 8.15294C13.649 8.15294 14.7779 7.34118 16.1184 7.34118C17.5295 7.30588 18.87 7.97647 19.6814 9.14118ZM15.4834 5.85882C16.0831 5.15294 16.4006 4.27059 16.4359 3.35294C16.4359 3.24706 16.4359 3.10588 16.4006 3C15.3776 3.10588 14.4251 3.6 13.7548 4.37647C13.1551 5.04706 12.8024 5.89412 12.7671 6.81176C12.7671 6.91765 12.7671 7.02353 12.8024 7.12941C12.8729 7.12941 12.9787 7.16471 13.0493 7.16471C14.0018 7.09412 14.8837 6.6 15.4834 5.85882Z" fill="black" fill-opacity="0.75"/>
</g>
</svg>
