<!-- Placeholder SVG icons for the website -->
<svg xmlns="http://www.w3.org/2000/svg" style="display: none;">
  <!-- Main Logo -->
  <symbol id="logo" viewBox="0 0 32 32">
    <defs>
      <linearGradient id="logoGradient" x1="0%" y1="0%" x2="100%" y2="100%">
        <stop offset="0%" style="stop-color:#6366f1"/>
        <stop offset="100%" style="stop-color:#8b5cf6"/>
      </linearGradient>
    </defs>
    <rect width="32" height="32" rx="8" fill="url(#logoGradient)"/>
    <path d="M8 12h16v2H8zm0 4h16v2H8zm0 4h12v2H8z" fill="white"/>
    <circle cx="22" cy="20" r="2" fill="white"/>
  </symbol>

  <!-- Platform Icons -->
  <symbol id="macos-icon" viewBox="0 0 24 24">
    <path d="M18.71 19.5c-.83 1.24-1.71 2.45-3.05 2.47-1.34.03-1.77-.79-3.29-.79-1.53 0-2 .77-3.27.82-1.31.05-2.3-1.32-3.14-2.53C4.25 17 2.94 12.45 4.7 9.39c.87-1.52 2.43-2.48 4.12-2.51 1.28-.02 2.5.87 3.29.87.78 0 2.26-1.07 3.81-.91.65.03 2.47.26 3.64 1.98-.09.06-2.17 1.28-2.15 3.81.03 3.02 2.65 4.03 2.68 4.04-.03.07-.42 1.44-1.38 2.83M13 3.5c.73-.83 1.94-1.46 2.94-1.5.13 1.17-.34 2.35-1.04 3.19-.69.85-1.83 1.51-2.95 1.42-.15-1.15.41-2.35 1.05-3.11z" fill="currentColor"/>
  </symbol>

  <symbol id="windows-icon" viewBox="0 0 24 24">
    <path d="M3 12V6.75l6-1.32v6.48L3 12zm17-8.84v6.59l-8-.05V2.25l8 .91zM20 12.75v6.6l-8 .9v-7.5l8 .05zm-11 0v7.44l-6-1.32V13.8l6-1.05z" fill="currentColor"/>
  </symbol>

  <symbol id="linux-icon" viewBox="0 0 24 24">
    <path d="M12.504 0C5.437 0-.001 5.437-.001 12.504s5.438 12.503 12.505 12.503S25.008 19.57 25.008 12.504 19.571.001 12.504.001zm-.126 4.695c.667 0 1.208.541 1.208 1.208 0 .667-.541 1.208-1.208 1.208s-1.208-.541-1.208-1.208c0-.667.541-1.208 1.208-1.208zm-2.293 1.891c.145-.025.29-.036.434-.036.928 0 1.856.372 2.551 1.116l.097.104c.697.744 1.045 1.726 1.045 2.708 0 .289-.024.578-.073.862-.146.851-.512 1.613-1.116 2.217-.604.604-1.366.97-2.217 1.116a5.364 5.364 0 01-.862.073c-.982 0-1.964-.348-2.708-1.045l-.104-.097c-.744-.695-1.116-1.623-1.116-2.551 0-.144.011-.289.036-.434.073-.434.289-.835.604-1.15s.716-.531 1.15-.604c.145-.025.29-.036.434-.036.928 0 1.856.372 2.551 1.116l.097.104c.097.104.169.229.215.361.046.133.046.275 0 .408-.046.132-.118.257-.215.361l-.097.104c-.695.744-1.623 1.116-2.551 1.116-.144 0-.289-.011-.434-.036-.434-.073-.835-.289-1.15-.604s-.531-.716-.604-1.15a5.364 5.364 0 01-.036-.434c0-.928.372-1.856 1.116-2.551l.104-.097c.104-.097.229-.169.361-.215.133-.046.275-.046.408 0z" fill="currentColor"/>
  </symbol>
</svg>
